<svg xmlns="http://www.w3.org/2000/svg" width="400" height="240" viewBox="0 0 400 240">
  <rect width="400" height="240" fill="#f5f5f5"/>
  <rect width="80" height="240" fill="#1a1a2e"/>
  <text x="16" y="40" font-family="Inter, sans-serif" font-size="8" font-weight="700" fill="#fff">Filters</text>
  <rect x="12" y="55" width="56" height="20" rx="4" fill="#2d3748"/>
  <rect x="12" y="85" width="56" height="20" rx="4" fill="#2d3748"/>
  <rect x="12" y="115" width="56" height="20" rx="4" fill="#2d3748"/>
  <rect x="90" y="12" width="300" height="28" fill="#fff"/>
  <text x="100" y="30" font-family="Inter, sans-serif" font-size="9" font-weight="600" fill="#333">Search Results</text>
  <rect x="90" y="48" width="300" height="36" fill="#fff"/>
  <circle cx="108" cy="66" r="12" fill="#cbd5e0"/>
  <text x="128" y="62" font-family="Inter, sans-serif" font-size="8" font-weight="600" fill="#333">Sarah Johnson</text>
  <text x="128" y="74" font-family="Inter, sans-serif" font-size="7" fill="#666">Frontend Developer</text>
  <rect x="330" y="58" width="50" height="16" rx="8" fill="#6344ff"/>
  <text x="340" y="69" font-family="Inter, sans-serif" font-size="6" fill="#fff">Active</text>
  <rect x="90" y="90" width="300" height="36" fill="#fff"/>
  <circle cx="108" cy="108" r="12" fill="#cbd5e0"/>
  <text x="128" y="104" font-family="Inter, sans-serif" font-size="8" font-weight="600" fill="#333">Mark Williams</text>
  <text x="128" y="116" font-family="Inter, sans-serif" font-size="7" fill="#666">UX Designer</text>
  <rect x="330" y="100" width="50" height="16" rx="8" fill="#48bb78"/>
  <text x="338" y="111" font-family="Inter, sans-serif" font-size="6" fill="#fff">Hired</text>
  <rect x="90" y="132" width="300" height="36" fill="#fff"/>
  <circle cx="108" cy="150" r="12" fill="#cbd5e0"/>
  <text x="128" y="146" font-family="Inter, sans-serif" font-size="8" font-weight="600" fill="#333">Emma Davis</text>
  <text x="128" y="158" font-family="Inter, sans-serif" font-size="7" fill="#666">Product Manager</text>
  <rect x="330" y="142" width="50" height="16" rx="8" fill="#f6ad55"/>
  <text x="336" y="153" font-family="Inter, sans-serif" font-size="6" fill="#fff">Review</text>
</svg>
