<svg xmlns="http://www.w3.org/2000/svg" width="520" height="320" viewBox="0 0 520 320">
  <rect width="520" height="320" fill="#f5f5f5"/>
  <rect width="520" height="48" fill="#fff" stroke="#eee"/>
  <text x="20" y="30" font-family="Inter, sans-serif" font-size="12" font-weight="700" fill="#333">Waevio</text>
  <text x="200" y="30" font-family="Inter, sans-serif" font-size="9" fill="#666">Timeline</text>
  <text x="260" y="30" font-family="Inter, sans-serif" font-size="9" fill="#666">Explore</text>
  <text x="310" y="30" font-family="Inter, sans-serif" font-size="9" fill="#666">Map</text>
  <rect y="48" width="520" height="100" fill="#2d5a3d"/>
  <circle cx="80" cy="130" r="28" fill="#fff"/>
  <circle cx="80" cy="130" r="24" fill="#cbd5e0"/>
  <text x="120" y="125" font-family="Inter, sans-serif" font-size="14" font-weight="700" fill="#333">TestUser</text>
  <text x="120" y="142" font-family="Inter, sans-serif" font-size="8" fill="#666">Historical events explorer</text>
  <rect x="20" y="175" width="115" height="60" rx="4" fill="#e8b4b8"/>
  <rect x="145" y="175" width="115" height="60" rx="4" fill="#b8d4e8"/>
  <rect x="270" y="175" width="115" height="60" rx="4" fill="#d4e8b8"/>
  <rect x="395" y="175" width="105" height="60" rx="4" fill="#e8d4b8"/>
  <rect x="20" y="245" width="115" height="60" rx="4" fill="#c8b8e8"/>
  <rect x="145" y="245" width="115" height="60" rx="4" fill="#b8e8d4"/>
  <rect x="270" y="245" width="115" height="60" rx="4" fill="#e8c8b8"/>
  <rect x="395" y="245" width="105" height="60" rx="4" fill="#d4b8e8"/>
</svg>
